<svg width="21" height="21" viewBox="0 0 21 21" fill="none" xmlns="http://www.w3.org/2000/svg">
<circle cx="10.5" cy="10.5" r="10.5" fill="#F7B731" fill-opacity="0.12"/>
<path d="M11.4989 15.0591C11.4987 15.3497 11.4192 15.6338 11.2705 15.8754C11.1217 16.117 10.9103 16.3052 10.6631 16.4164C10.4159 16.5275 10.1439 16.5565 9.88146 16.4998C9.61906 16.443 9.37802 16.303 9.18883 16.0975C8.99964 15.892 8.87078 15.6301 8.81853 15.3451C8.76629 15.06 8.793 14.7645 8.8953 14.4959C8.9976 14.2274 9.17089 13.9978 9.39327 13.8362C9.61566 13.6745 9.87716 13.5882 10.1447 13.588C10.3227 13.5874 10.499 13.6251 10.6635 13.6988C10.8281 13.7726 10.9775 13.8809 11.1034 14.0176C11.2292 14.1543 11.329 14.3167 11.3968 14.4955C11.4647 14.6742 11.4994 14.8657 11.4989 15.0591Z" fill="#FF7600"/>
<path d="M13.9514 7.64328C13.9539 8.12405 13.8628 8.59996 13.6839 9.03972C13.6064 9.22901 13.5135 9.4104 13.4063 9.58172C13.1842 9.93052 12.9177 10.2433 12.6148 10.5109C12.5628 10.5582 12.5058 10.6074 12.4295 10.6712C12.3339 10.7486 12.2274 10.8297 12.105 10.9171C11.8888 11.069 11.6808 11.2342 11.4819 11.4118C11.364 11.5116 11.2618 11.6316 11.1793 11.767C11.0761 11.9629 11.0241 12.3418 11.0241 12.8938V12.9849H8.76351V12.5586C8.76351 12.2252 8.77106 11.9447 8.78531 11.7005C8.79557 11.4793 8.81684 11.2588 8.84903 11.0401C8.87116 10.8477 8.92453 10.6611 9.00666 10.489C9.15508 10.2203 9.51312 9.855 10.1001 9.37221C10.1252 9.35217 10.1504 9.33121 10.1764 9.31026C10.2007 9.29204 10.2242 9.27291 10.2485 9.25287C10.4518 9.09597 10.6391 8.91579 10.807 8.71543C10.856 8.65303 10.9014 8.58731 10.9428 8.51867L10.9537 8.50045C11.0851 8.24751 11.1496 7.95997 11.1398 7.66969C11.1405 7.59625 11.136 7.52287 11.1264 7.45016C11.1003 7.16657 10.9792 6.90331 10.786 6.71049C10.5764 6.50176 10.3061 6.37929 10.0221 6.36433C9.98606 6.36069 9.95252 6.35978 9.91813 6.35978C9.7845 6.35897 9.65128 6.37611 9.52152 6.41079C9.27828 6.47598 9.06005 6.62256 8.89767 6.82982C8.81161 6.94018 8.73839 7.06164 8.67965 7.19145C8.48156 7.68792 8.35486 8.2145 8.304 8.75277L8.2956 8.84842L6.16748 8.23264V7.21332C6.17755 7.17232 6.18844 7.13133 6.20019 7.09125C6.33605 6.58004 6.55252 6.0983 6.83997 5.66748C6.96283 5.48466 7.10123 5.31479 7.25334 5.16009C7.28939 5.12093 7.32882 5.08267 7.36823 5.04532C7.62429 4.80382 7.9088 4.60041 8.21427 4.44047L8.24111 4.4268C8.81972 4.13629 9.45099 3.9906 10.0883 4.00049C10.1546 4.00049 10.2326 4.0014 10.3097 4.00595C10.9431 4.0234 11.5647 4.19557 12.1284 4.50969C12.3816 4.65206 12.6188 4.82567 12.8353 5.0271C13.4428 5.56508 13.834 6.33859 13.9262 7.18416C13.943 7.33652 13.9514 7.48983 13.9514 7.64328Z" fill="#FF7600"/>
<path opacity="0.3" d="M12.435 15.0591C12.4348 15.3497 12.3553 15.6338 12.2065 15.8754C12.0577 16.117 11.8464 16.3052 11.5991 16.4164C11.3519 16.5275 11.0799 16.5565 10.8175 16.4998C10.5551 16.443 10.3141 16.303 10.1249 16.0975C9.93568 15.892 9.80681 15.6301 9.75457 15.3451C9.70232 15.06 9.72903 14.7645 9.83133 14.4959C9.93364 14.2274 10.1069 13.9978 10.3293 13.8362C10.5517 13.6745 10.8132 13.5882 11.0808 13.588C11.2587 13.5874 11.4351 13.6251 11.5996 13.6988C11.7641 13.7726 11.9136 13.8809 12.0394 14.0176C12.1653 14.1543 12.265 14.3167 12.3329 14.4955C12.4008 14.6742 12.4355 14.8657 12.435 15.0591Z" fill="black"/>
<path opacity="0.3" d="M14.8874 7.64328C14.89 8.12405 14.7988 8.59996 14.6199 9.03972C14.5424 9.22901 14.4496 9.4104 14.3424 9.58172C14.1203 9.93052 13.8538 10.2433 13.5508 10.5109C13.4988 10.5582 13.4418 10.6074 13.3655 10.6712C13.2699 10.7486 13.1634 10.8297 13.041 10.9171C12.8248 11.069 12.6168 11.2342 12.418 11.4118C12.3001 11.5116 12.1978 11.6316 12.1153 11.767C12.0121 11.9629 11.9602 12.3418 11.9602 12.8938V12.9849H9.69954V12.5586C9.69954 12.2252 9.70709 11.9447 9.72134 11.7005C9.7316 11.4793 9.75288 11.2588 9.78507 11.0401C9.8072 10.8477 9.86057 10.6611 9.9427 10.489C10.0911 10.2203 10.4492 9.855 11.0361 9.37221C11.0613 9.35217 11.0864 9.33121 11.1124 9.31026C11.1367 9.29204 11.1602 9.27291 11.1845 9.25287C11.3879 9.09597 11.5751 8.91579 11.743 8.71543C11.792 8.65303 11.8374 8.58731 11.8788 8.51867L11.8897 8.50045C12.0212 8.24751 12.0856 7.95997 12.0759 7.66969C12.0765 7.59625 12.072 7.52287 12.0625 7.45016C12.0364 7.16657 11.9152 6.90331 11.722 6.71049C11.5124 6.50176 11.2422 6.37929 10.9581 6.36433C10.9221 6.36069 10.8886 6.35978 10.8542 6.35978C10.7205 6.35897 10.5873 6.37611 10.4576 6.41079C10.2143 6.47598 9.99609 6.62256 9.83371 6.82982C9.74765 6.94018 9.67442 7.06164 9.61569 7.19145C9.41759 7.68792 9.29089 8.2145 9.24003 8.75277L9.23164 8.84842L7.10352 8.23264V7.21332C7.11359 7.17232 7.12448 7.13133 7.13623 7.09125C7.27208 6.58004 7.48855 6.0983 7.776 5.66748C7.89886 5.48466 8.03726 5.31479 8.18938 5.16009C8.22543 5.12093 8.26486 5.08267 8.30427 5.04532C8.56033 4.80382 8.84484 4.60041 9.15031 4.44047L9.17714 4.4268C9.75576 4.13629 10.387 3.9906 11.0244 4.00049C11.0906 4.00049 11.1686 4.0014 11.2457 4.00595C11.8791 4.0234 12.5007 4.19557 13.0645 4.50969C13.3176 4.65206 13.5548 4.82567 13.7713 5.0271C14.3789 5.56508 14.7701 6.33859 14.8622 7.18416C14.879 7.33652 14.8874 7.48983 14.8874 7.64328Z" fill="black"/>
<path d="M11.5121 15.0591C11.5119 15.3497 11.4324 15.6338 11.2836 15.8754C11.1349 16.117 10.9235 16.3052 10.6763 16.4164C10.4291 16.5275 10.1571 16.5565 9.89465 16.4998C9.63224 16.443 9.39121 16.303 9.20202 16.0975C9.01282 15.892 8.88396 15.6301 8.83172 15.3451C8.77947 15.06 8.80618 14.7645 8.90848 14.4959C9.01078 14.2274 9.18407 13.9978 9.40646 13.8362C9.62885 13.6745 9.89035 13.5882 10.1579 13.588C10.3359 13.5874 10.5122 13.6251 10.6767 13.6988C10.8413 13.7726 10.9907 13.8809 11.1166 14.0176C11.2424 14.1543 11.3422 14.3167 11.41 14.4955C11.4779 14.6742 11.5126 14.8657 11.5121 15.0591Z" fill="#FF7600"/>
<path d="M13.965 7.64328C13.9676 8.12405 13.8764 8.59996 13.6975 9.03972C13.6201 9.22901 13.5272 9.4104 13.42 9.58172C13.1979 9.93052 12.9314 10.2433 12.6284 10.5109C12.5764 10.5582 12.5194 10.6074 12.4431 10.6712C12.3475 10.7486 12.241 10.8297 12.1186 10.9171C11.9024 11.069 11.6944 11.2342 11.4956 11.4118C11.3777 11.5116 11.2754 11.6316 11.1929 11.767C11.0898 11.9629 11.0378 12.3418 11.0378 12.8938V12.9849H8.77714V12.5586C8.77714 12.2252 8.78469 11.9447 8.79894 11.7005C8.8092 11.4793 8.83048 11.2588 8.86267 11.0401C8.8848 10.8477 8.93817 10.6611 9.0203 10.489C9.16871 10.2203 9.52676 9.855 10.1137 9.37221C10.1389 9.35217 10.164 9.33121 10.19 9.31026C10.2144 9.29204 10.2378 9.27291 10.2621 9.25287C10.4655 9.09597 10.6527 8.91579 10.8206 8.71543C10.8696 8.65303 10.915 8.58731 10.9564 8.51867L10.9673 8.50045C11.0988 8.24751 11.1632 7.95997 11.1535 7.66969C11.1541 7.59625 11.1496 7.52287 11.1401 7.45016C11.114 7.16657 10.9928 6.90331 10.7996 6.71049C10.59 6.50176 10.3198 6.37929 10.0357 6.36433C9.99969 6.36069 9.96616 6.35978 9.93177 6.35978C9.79813 6.35897 9.66492 6.37611 9.53515 6.41079C9.29192 6.47598 9.07369 6.62256 8.91131 6.82982C8.82525 6.94018 8.75202 7.06164 8.69329 7.19145C8.54235 7.51848 8.44425 7.95207 8.40148 8.4795L8.39309 8.57515L6 8.2044L6.01173 8.11422C6.05378 7.7679 6.12136 7.42581 6.21382 7.09125C6.34968 6.58004 6.56615 6.0983 6.8536 5.66748C6.97646 5.48466 7.11486 5.31479 7.26698 5.16009C7.30303 5.12093 7.34245 5.08267 7.38186 5.04532C7.63792 4.80382 7.92244 4.60041 8.2279 4.44047L8.25474 4.4268C8.83335 4.13629 9.46463 3.9906 10.102 4.00049C10.1682 4.00049 10.2462 4.0014 10.3233 4.00595C10.9567 4.0234 11.5783 4.19557 12.1421 4.50969C12.3952 4.65206 12.6324 4.82567 12.8489 5.0271C13.4565 5.56508 13.8477 6.33859 13.9398 7.18416C13.9566 7.33652 13.9651 7.48983 13.965 7.64328Z" fill="#FF7600"/>
</svg>
